<svg width="25" height="25" viewBox="0 0 25 25" fill="none" xmlns="http://www.w3.org/2000/svg">
<path d="M12.5 0.763158C18.9821 0.763158 24.2368 6.01792 24.2368 12.5C24.2368 18.9821 18.9821 24.2368 12.5 24.2368C6.01792 24.2368 0.763158 18.9821 0.763158 12.5C0.763158 6.01792 6.01792 0.763158 12.5 0.763158Z" stroke="#215B63" stroke-width="1.52632"/>
<path d="M22.2223 12.5C22.2223 7.13056 17.8695 2.77777 12.5001 2.77777C7.13062 2.77777 2.77783 7.13056 2.77783 12.5C2.77783 17.8694 7.13062 22.2222 12.5001 22.2222C17.8695 22.2222 22.2223 17.8694 22.2223 12.5Z" fill="#215B63"/>
<path d="M8.72741 13.6842C8.72741 13.9079 8.76695 14.1181 8.84601 14.3149C8.92508 14.5028 9.0305 14.6683 9.16228 14.8115C9.30284 14.9546 9.46537 15.0664 9.64985 15.1469C9.84313 15.2275 10.0496 15.2677 10.2692 15.2677C10.4801 15.2677 10.6777 15.2275 10.8622 15.1469C11.0555 15.0664 11.218 14.9546 11.3498 14.8115C11.4903 14.6683 11.6002 14.5028 11.6792 14.3149C11.7671 14.1271 11.811 13.9258 11.811 13.7111C11.811 13.4964 11.7671 13.2951 11.6792 13.1072C11.6002 12.9104 11.4903 12.7404 11.3498 12.5973C11.218 12.4542 11.0555 12.3423 10.8622 12.2618C10.6777 12.1813 10.4801 12.141 10.2692 12.141C10.0496 12.141 9.84313 12.1813 9.64985 12.2618C9.46537 12.3423 9.30284 12.4542 9.16228 12.5973C9.0305 12.7404 8.92508 12.9059 8.84601 13.0938C8.76695 13.2727 8.72741 13.4695 8.72741 13.6842ZM11.7319 10.2623H14.1303V17.1464H11.7319V16.3815C11.2224 17.0346 10.5328 17.3611 9.66303 17.3611C9.17106 17.3611 8.71863 17.2717 8.30573 17.0927C7.89282 16.9049 7.53263 16.6454 7.22515 16.3144C6.91767 15.9834 6.67608 15.5942 6.50038 15.1469C6.33346 14.6996 6.25 14.2121 6.25 13.6842C6.25 13.1922 6.33346 12.727 6.50038 12.2886C6.66729 11.8413 6.9001 11.4522 7.1988 11.1212C7.49749 10.7902 7.85329 10.5307 8.26619 10.3429C8.6791 10.146 9.13592 10.0476 9.63668 10.0476C10.4801 10.0476 11.1785 10.3473 11.7319 10.9467V10.2623ZM17.2162 10.2623V17.1464H14.831V10.2623H17.2162ZM14.6729 7.61876C14.6729 7.43089 14.708 7.25644 14.7783 7.09541C14.8486 6.92543 14.9452 6.77782 15.0682 6.65258C15.1912 6.52733 15.3317 6.42892 15.4899 6.35735C15.6568 6.28578 15.8325 6.25 16.017 6.25C16.2015 6.25 16.3728 6.28578 16.5309 6.35735C16.6978 6.42892 16.8428 6.52733 16.9658 6.65258C17.0888 6.77782 17.1854 6.92543 17.2557 7.09541C17.326 7.25644 17.3611 7.43089 17.3611 7.61876C17.3611 7.80663 17.326 7.98555 17.2557 8.15553C17.1854 8.31656 17.0888 8.4597 16.9658 8.58494C16.8428 8.71019 16.6978 8.8086 16.5309 8.88017C16.3728 8.95174 16.2015 8.98752 16.017 8.98752C15.8325 8.98752 15.6568 8.95174 15.4899 8.88017C15.3317 8.8086 15.1912 8.71019 15.0682 8.58494C14.9452 8.4597 14.8486 8.31656 14.7783 8.15553C14.708 7.98555 14.6729 7.80663 14.6729 7.61876Z" fill="white"/>
</svg>
